<svg width="20" height="20" viewBox="0 0 20 20" fill="none" xmlns="http://www.w3.org/2000/svg">
<path d="M4.1666 16.6715H7.69993C7.8096 16.6722 7.91832 16.6512 8.01985 16.6097C8.12139 16.5682 8.21373 16.5071 8.2916 16.4299L14.0583 10.6549L16.4249 8.33821C16.503 8.26074 16.565 8.16857 16.6073 8.06702C16.6497 7.96547 16.6714 7.85655 16.6714 7.74654C16.6714 7.63653 16.6497 7.52761 16.6073 7.42606C16.565 7.32451 16.503 7.23234 16.4249 7.15487L12.8916 3.57987C12.8141 3.50177 12.722 3.43977 12.6204 3.39746C12.5189 3.35516 12.4099 3.33337 12.2999 3.33337C12.1899 3.33337 12.081 3.35516 11.9795 3.39746C11.8779 3.43977 11.7857 3.50177 11.7083 3.57987L9.35827 5.93821L3.57493 11.7132C3.4977 11.7911 3.43659 11.8834 3.39512 11.985C3.35365 12.0865 3.33263 12.1952 3.33327 12.3049V15.8382C3.33327 16.0592 3.42106 16.2712 3.57734 16.4275C3.73362 16.5837 3.94559 16.6715 4.1666 16.6715ZM12.2999 5.34654L14.6583 7.70487L13.4749 8.88821L11.1166 6.52987L12.2999 5.34654ZM4.99993 12.6465L9.9416 7.70487L12.2999 10.0632L7.35827 15.0049H4.99993V12.6465Z" fill="#959595"/>
</svg>
