<svg width="20" height="20" viewBox="0 0 20 20" fill="none" xmlns="http://www.w3.org/2000/svg">
<path d="M16.6666 7.45002C16.6579 7.37347 16.6411 7.29805 16.6166 7.22502V7.15002C16.5765 7.06434 16.5231 6.98557 16.4583 6.91669L11.4583 1.91669C11.3894 1.85187 11.3106 1.79842 11.2249 1.75835H11.1499C11.0653 1.7098 10.9718 1.67864 10.8749 1.66669H5.83325C5.17021 1.66669 4.53433 1.93008 4.06549 2.39892C3.59664 2.86776 3.33325 3.50365 3.33325 4.16669V15.8334C3.33325 16.4964 3.59664 17.1323 4.06549 17.6011C4.53433 18.07 5.17021 18.3334 5.83325 18.3334H14.1666C14.8296 18.3334 15.4655 18.07 15.9344 17.6011C16.4032 17.1323 16.6666 16.4964 16.6666 15.8334V7.50002C16.6666 7.50002 16.6666 7.50002 16.6666 7.45002ZM11.6666 4.50835L13.8249 6.66669H12.4999C12.2789 6.66669 12.0669 6.57889 11.9107 6.42261C11.7544 6.26633 11.6666 6.05437 11.6666 5.83335V4.50835ZM14.9999 15.8334C14.9999 16.0544 14.9121 16.2663 14.7558 16.4226C14.5996 16.5789 14.3876 16.6667 14.1666 16.6667H5.83325C5.61224 16.6667 5.40028 16.5789 5.244 16.4226C5.08772 16.2663 4.99992 16.0544 4.99992 15.8334V4.16669C4.99992 3.94567 5.08772 3.73371 5.244 3.57743C5.40028 3.42115 5.61224 3.33335 5.83325 3.33335H9.99992V5.83335C9.99992 6.4964 10.2633 7.13228 10.7322 7.60112C11.201 8.06996 11.8369 8.33335 12.4999 8.33335H14.9999V15.8334Z" fill="#959595"/>
</svg>
