<svg width="20" height="20" viewBox="0 0 20 20" fill="none" xmlns="http://www.w3.org/2000/svg">
<path d="M14.1666 7.50002V5.83335C14.1666 4.72829 13.7276 3.66848 12.9462 2.88708C12.1648 2.10567 11.105 1.66669 9.99992 1.66669C8.89485 1.66669 7.83504 2.10567 7.05364 2.88708C6.27224 3.66848 5.83325 4.72829 5.83325 5.83335V7.50002C5.17021 7.50002 4.53433 7.76341 4.06549 8.23225C3.59664 8.70109 3.33325 9.33698 3.33325 10V15.8334C3.33325 16.4964 3.59664 17.1323 4.06549 17.6011C4.53433 18.07 5.17021 18.3334 5.83325 18.3334H14.1666C14.8296 18.3334 15.4655 18.07 15.9344 17.6011C16.4032 17.1323 16.6666 16.4964 16.6666 15.8334V10C16.6666 9.33698 16.4032 8.70109 15.9344 8.23225C15.4655 7.76341 14.8296 7.50002 14.1666 7.50002ZM7.49992 5.83335C7.49992 5.17031 7.76331 4.53443 8.23215 4.06559C8.70099 3.59675 9.33688 3.33335 9.99992 3.33335C10.663 3.33335 11.2988 3.59675 11.7677 4.06559C12.2365 4.53443 12.4999 5.17031 12.4999 5.83335V7.50002H7.49992V5.83335ZM14.9999 15.8334C14.9999 16.0544 14.9121 16.2663 14.7558 16.4226C14.5996 16.5789 14.3876 16.6667 14.1666 16.6667H5.83325C5.61224 16.6667 5.40028 16.5789 5.244 16.4226C5.08772 16.2663 4.99992 16.0544 4.99992 15.8334V10C4.99992 9.77901 5.08772 9.56705 5.244 9.41077C5.40028 9.25449 5.61224 9.16669 5.83325 9.16669H14.1666C14.3876 9.16669 14.5996 9.25449 14.7558 9.41077C14.9121 9.56705 14.9999 9.77901 14.9999 10V15.8334Z" fill="white"/>
</svg>
