<svg width="22" height="22" viewBox="0 0 22 22" fill="none" xmlns="http://www.w3.org/2000/svg">
<g clip-path="url(#clip0_5473_79402)">
<path d="M20.1667 13.75H18.3334V11C18.3334 10.7569 18.2368 10.5237 18.0649 10.3518C17.893 10.1799 17.6599 10.0834 17.4167 10.0834H11.9167V8.25002H13.7501C13.9932 8.25002 14.2264 8.15344 14.3983 7.98153C14.5702 7.80963 14.6667 7.57647 14.6667 7.33335V1.83335C14.6667 1.59024 14.5702 1.35708 14.3983 1.18517C14.2264 1.01326 13.9932 0.916687 13.7501 0.916687H8.25008C8.00697 0.916687 7.77381 1.01326 7.6019 1.18517C7.42999 1.35708 7.33341 1.59024 7.33341 1.83335V7.33335C7.33341 7.57647 7.42999 7.80963 7.6019 7.98153C7.77381 8.15344 8.00697 8.25002 8.25008 8.25002H10.0834V10.0834H4.58341C4.3403 10.0834 4.10714 10.1799 3.93523 10.3518C3.76333 10.5237 3.66675 10.7569 3.66675 11V13.75H1.83341C1.5903 13.75 1.35714 13.8466 1.18523 14.0185C1.01333 14.1904 0.916748 14.4236 0.916748 14.6667V20.1667C0.916748 20.4098 1.01333 20.643 1.18523 20.8149C1.35714 20.9868 1.5903 21.0834 1.83341 21.0834H7.33341C7.57653 21.0834 7.80969 20.9868 7.9816 20.8149C8.1535 20.643 8.25008 20.4098 8.25008 20.1667V14.6667C8.25008 14.4236 8.1535 14.1904 7.9816 14.0185C7.80969 13.8466 7.57653 13.75 7.33341 13.75H5.50008V11.9167H16.5001V13.75H14.6667C14.4236 13.75 14.1905 13.8466 14.0186 14.0185C13.8467 14.1904 13.7501 14.4236 13.7501 14.6667V20.1667C13.7501 20.4098 13.8467 20.643 14.0186 20.8149C14.1905 20.9868 14.4236 21.0834 14.6667 21.0834H20.1667C20.4099 21.0834 20.643 20.9868 20.8149 20.8149C20.9868 20.643 21.0834 20.4098 21.0834 20.1667V14.6667C21.0834 14.4236 20.9868 14.1904 20.8149 14.0185C20.643 13.8466 20.4099 13.75 20.1667 13.75ZM6.41675 15.5834V19.25H2.75008V15.5834H6.41675ZM9.16675 6.41669V2.75002H12.8334V6.41669H9.16675ZM19.2501 19.25H15.5834V15.5834H19.2501V19.25Z" fill="white" fill-opacity="0.4"/>
</g>
<defs>
<clipPath id="clip0_5473_79402">
<rect width="22" height="22" fill="white"/>
</clipPath>
</defs>
</svg>
