<svg width="22" height="22" viewBox="0 0 22 22" fill="none" xmlns="http://www.w3.org/2000/svg">
<path d="M17.4166 5.95835H14.6666V5.04169C14.6666 4.31234 14.3769 3.61287 13.8611 3.09714C13.3454 2.58142 12.6459 2.29169 11.9166 2.29169H10.0833C9.35391 2.29169 8.65443 2.58142 8.13871 3.09714C7.62298 3.61287 7.33325 4.31234 7.33325 5.04169V5.95835H4.58325C3.85391 5.95835 3.15443 6.24809 2.63871 6.76381C2.12298 7.27954 1.83325 7.97901 1.83325 8.70835V16.9584C1.83325 17.6877 2.12298 18.3872 2.63871 18.9029C3.15443 19.4186 3.85391 19.7084 4.58325 19.7084H17.4166C18.1459 19.7084 18.8454 19.4186 19.3611 18.9029C19.8769 18.3872 20.1666 17.6877 20.1666 16.9584V8.70835C20.1666 7.97901 19.8769 7.27954 19.3611 6.76381C18.8454 6.24809 18.1459 5.95835 17.4166 5.95835ZM9.16658 5.04169C9.16658 4.79857 9.26316 4.56541 9.43507 4.39351C9.60698 4.2216 9.84014 4.12502 10.0833 4.12502H11.9166C12.1597 4.12502 12.3929 4.2216 12.5648 4.39351C12.7367 4.56541 12.8333 4.79857 12.8333 5.04169V5.95835H9.16658V5.04169ZM18.3333 16.9584C18.3333 17.2015 18.2367 17.4346 18.0648 17.6065C17.8929 17.7784 17.6597 17.875 17.4166 17.875H4.58325C4.34014 17.875 4.10698 17.7784 3.93507 17.6065C3.76316 17.4346 3.66659 17.2015 3.66659 16.9584V12.3292H6.41658V13.2917C6.41658 13.5348 6.51316 13.768 6.68507 13.9399C6.85698 14.1118 7.09014 14.2084 7.33325 14.2084C7.57637 14.2084 7.80952 14.1118 7.98143 13.9399C8.15334 13.768 8.24992 13.5348 8.24992 13.2917V12.3292H13.7499V13.2917C13.7499 13.5348 13.8465 13.768 14.0184 13.9399C14.1903 14.1118 14.4235 14.2084 14.6666 14.2084C14.9097 14.2084 15.1429 14.1118 15.3148 13.9399C15.4867 13.768 15.5833 13.5348 15.5833 13.2917V12.3292H18.3333V16.9584ZM18.3333 10.5417H3.66659V8.70835C3.66659 8.46524 3.76316 8.23208 3.93507 8.06017C4.10698 7.88826 4.34014 7.79169 4.58325 7.79169H17.4166C17.6597 7.79169 17.8929 7.88826 18.0648 8.06017C18.2367 8.23208 18.3333 8.46524 18.3333 8.70835V10.5417Z" fill="white" fill-opacity="0.4"/>
</svg>
